Coordinates
version=1
nRows=9
nColumns=36
inDegrees=yes

Units are S.I. units (second, meters, Newtons, ...)
If the header above contains a line with 'inDegrees', this indicates whether rotational values are in degrees (yes) or radians (no).

endheader
time	pelvis_tilt	pelvis_list	pelvis_rotation	pelvis_tx	pelvis_ty	pelvis_tz	hip_flexion_r	hip_adduction_r	hip_rotation_r	knee_angle_r	knee_angle_r_beta	ankle_angle_r	subtalar_angle_r	mtp_angle_r	hip_flexion_l	hip_adduction_l	hip_rotation_l	knee_angle_l	knee_angle_l_beta	ankle_angle_l	subtalar_angle_l	mtp_angle_l	lumbar_extension	lumbar_bending	lumbar_rotation	arm_flex_r	arm_add_r	arm_rot_r	elbow_flex_r	pro_sup_r	arm_flex_l	arm_add_l	arm_rot_l	elbow_flex_l	pro_sup_l
      0.33000000	      0.42637054	     -3.78591327	      0.49115838	      0.29448764	      0.93986963	     -0.24799122	     -1.16854251	     10.95649683	      2.03265227	      6.58938671	      0.11500649	      6.04340223	    -11.49686924	     -6.67932254	     25.22225871	     -4.01947124	      5.84283282	     61.41918899	      1.07196707	     -4.38751302	    -22.18077829	     -6.67932254	     -6.70863969	      5.15281798	     -0.30879077	     -0.71987371	     -8.40865365	    -11.17222339	     45.48894219	    100.17176089	     -7.77831393	     -2.67789310	    -19.79242256	     34.25429288	     99.74341849
      0.34000000	      0.48719526	     -3.52288122	      0.16982248	      0.30561882	      0.94008730	     -0.24717697	     -2.21988949	     10.65264352	      1.96859875	      6.26967126	      0.10942641	      7.14845731	    -10.16240273	     -6.74404227	     26.13182101	     -3.76460747	      5.60217168	     59.08832311	      1.03128579	     -4.66420604	    -23.13876155	     -6.74404227	     -6.88335502	      4.82275046	      0.00787901	      0.25768394	     -8.65685634	    -10.62218058	     46.37538783	     99.89491063	     -8.58358512	     -2.12793099	    -22.07409874	     33.94696637	     99.62478303
      0.35000000	      0.48460174	     -3.31009254	     -0.16611027	      0.31674575	      0.94002061	     -0.24629845	     -3.25913633	     10.42173365	      2.20522166	      5.82543513	      0.10167302	      7.63819078	     -9.67440406	     -6.76213986	     26.99229776	     -3.60216513	      5.35896006	     56.50035249	      0.98611718	     -4.32525094	    -23.10448131	     -6.76213986	     -6.98051135	      4.57026751	      0.45912428	      1.11687059	     -8.88059780	    -10.35521400	     47.30605797	     99.87936165	     -9.31111245	     -1.90441488	    -22.84697964	     33.25326172	     99.50260940
      0.36000000	      0.32578695	     -3.12648624	     -0.50142641	      0.32785205	      0.93953475	     -0.24546124	     -4.08277315	     10.21019013	      2.36248081	      5.46352116	      0.09535643	      7.98294640	     -9.30871854	     -6.76943490	     27.91979623	     -3.45456888	      5.16350669	     53.67840680	      0.93686494	     -4.08455889	    -22.88846338	     -6.76943490	     -6.88609779	      4.36297952	      0.80998439	      2.00346112	     -9.03422309	    -10.21984296	     48.18290794	     99.90753967	    -10.16995870	     -1.71566420	    -23.36021472	     32.71328624	     99.39687303
      0.37000000	      0.49884805	     -2.94532534	     -0.86316776	      0.33906815	      0.93929187	     -0.24463700	     -5.33118948	      9.97129529	      2.52213730	      5.00750456	      0.08739744	      8.80404683	     -8.45051644	     -6.78481936	     28.30396532	     -3.36101022	      4.84334675	     50.53684279	      0.88203430	     -3.82916785	    -22.33849098	     -6.78481936	     -7.21468090	      4.15453145	      1.29589609	      2.82585723	     -9.28640232	     -9.88604795	     49.09339835	     99.90769761	    -10.82482492	     -1.40622113	    -24.48790112	     32.17075872	     99.19237891
      0.38000000	      0.33628899	     -2.83609888	     -1.18311557	      0.35030272	      0.93836955	     -0.24387860	     -6.14622338	      9.82089974	      2.62557608	      4.67711459	      0.08163105	      9.26084911	     -7.91388471	     -6.79302656	     28.97461620	     -3.27983760	      4.69841696	     47.25143898	      0.82469319	     -3.67100110	    -21.68116282	     -6.79302656	     -7.10920484	      4.03519239	      1.58954931	      3.67899948	     -9.42929375	     -9.68832697	     49.93404246	     99.93495904	    -11.70055957	     -1.20290861	    -25.10457562	     31.78538709	     99.06432050
      0.39000000	      0.21464397	     -2.83140187	     -1.49363524	      0.36159436	      0.93725864	     -0.24314573	     -7.00732944	      9.77949615	      2.77409240	      4.35881287	      0.07607564	      9.70733491	     -7.43956454	     -6.79873802	     29.50079203	     -3.29472915	      4.63963119	     43.81690833	      0.76474932	     -3.56263414	    -20.85321792	     -6.79873802	     -7.07012531	      4.02834531	      1.90839978	      4.48195358	     -9.60271883	     -9.48017681	     50.72839810	     99.97646955	    -12.51552254	     -0.94596358	    -25.60839799	     31.39898962	     98.94747496
      0.40000000	      0.47884418	     -2.69344659	     -1.81114120	      0.37319063	      0.93638544	     -0.24250177	     -8.28234731	      9.51094406	      2.30639898	      4.07789538	      0.07117270	     11.30690826	     -5.23725040	     -6.84437002	     29.44645038	     -3.25137645	      4.30419285	     40.25177082	      0.70252593	     -2.44145917	    -18.38306130	     -6.84437002	     -7.45958605	      3.84500063	      2.03932453	      5.45321783	     -9.87021333	     -8.63670935	     51.37460294	     99.87483155	    -13.33449784	     -0.41981357	    -27.81328118	     31.49525827	     98.49565706
      0.41000000	      0.51141020	     -2.65929598	     -2.12448850	      0.38474576	      0.93508244	     -0.24187542	     -9.36041421	      9.39696571	      2.46264341	      3.66888683	      0.06403416	     11.77077321	     -4.75236879	     -6.86058418	     29.55552304	     -3.23721392	      4.19948721	     36.55732910	      0.63804576	     -2.32396764	    -16.88025269	     -6.86058418	     -7.58802464	      3.82067050	      2.34661019	      6.20289774	    -10.07594455	     -8.27552872	     52.14378903	     99.89574286	    -14.05464923	     -0.21244556	    -28.27891560	     31.03194218	     98.34776269
